<svg id="visual" viewBox="0 0 900 600" width="900" height="600" xmlns="http://www.w3.org/2000/svg" xmlns:xlink="http://www.w3.org/1999/xlink" version="1.1"><path d="M0 208L16.7 218.8C33.3 229.7 66.7 251.3 100 251.3C133.3 251.3 166.7 229.7 200 222C233.3 214.3 266.7 220.7 300 235.2C333.3 249.7 366.7 272.3 400 284.3C433.3 296.3 466.7 297.7 500 279.5C533.3 261.3 566.7 223.7 600 211.7C633.3 199.7 666.7 213.3 700 221.8C733.3 230.3 766.7 233.7 800 245.3C833.3 257 866.7 277 883.3 287L900 297L900 0L883.3 0C866.7 0 833.3 0 800 0C766.7 0 733.3 0 700 0C666.7 0 633.3 0 600 0C566.7 0 533.3 0 500 0C466.7 0 433.3 0 400 0C366.7 0 333.3 0 300 0C266.7 0 233.3 0 200 0C166.7 0 133.3 0 100 0C66.7 0 33.3 0 16.7 0L0 0Z" fill="#008064"></path><path d="M0 192L16.7 188.5C33.3 185 66.7 178 100 175.2C133.3 172.3 166.7 173.7 200 177.3C233.3 181 266.7 187 300 188.3C333.3 189.7 366.7 186.3 400 184.8C433.3 183.3 466.7 183.7 500 179.7C533.3 175.7 566.7 167.3 600 175.2C633.3 183 666.7 207 700 210.7C733.3 214.3 766.7 197.7 800 193.7C833.3 189.7 866.7 198.3 883.3 202.7L900 207L900 0L883.3 0C866.7 0 833.3 0 800 0C766.7 0 733.3 0 700 0C666.7 0 633.3 0 600 0C566.7 0 533.3 0 500 0C466.7 0 433.3 0 400 0C366.7 0 333.3 0 300 0C266.7 0 233.3 0 200 0C166.7 0 133.3 0 100 0C66.7 0 33.3 0 16.7 0L0 0Z" fill="#079e7e"></path><path d="M0 135L16.7 144C33.3 153 66.7 171 100 168.8C133.3 166.7 166.7 144.3 200 138.8C233.3 133.3 266.7 144.7 300 147C333.3 149.3 366.7 142.7 400 145.5C433.3 148.3 466.7 160.7 500 165.5C533.3 170.3 566.7 167.7 600 168.2C633.3 168.7 666.7 172.3 700 162.3C733.3 152.3 766.7 128.7 800 127.5C833.3 126.3 866.7 147.7 883.3 158.3L900 169L900 0L883.3 0C866.7 0 833.3 0 800 0C766.7 0 733.3 0 700 0C666.7 0 633.3 0 600 0C566.7 0 533.3 0 500 0C466.7 0 433.3 0 400 0C366.7 0 333.3 0 300 0C266.7 0 233.3 0 200 0C166.7 0 133.3 0 100 0C66.7 0 33.3 0 16.7 0L0 0Z" fill="#0fbd9a"></path><path d="M0 96L16.7 97.3C33.3 98.7 66.7 101.3 100 105.5C133.3 109.7 166.7 115.3 200 109.2C233.3 103 266.7 85 300 79.5C333.3 74 366.7 81 400 87.5C433.3 94 466.7 100 500 99.2C533.3 98.3 566.7 90.7 600 92.5C633.3 94.3 666.7 105.7 700 114.2C733.3 122.7 766.7 128.3 800 131.3C833.3 134.3 866.7 134.7 883.3 134.8L900 135L900 0L883.3 0C866.7 0 833.3 0 800 0C766.7 0 733.3 0 700 0C666.7 0 633.3 0 600 0C566.7 0 533.3 0 500 0C466.7 0 433.3 0 400 0C366.7 0 333.3 0 300 0C266.7 0 233.3 0 200 0C166.7 0 133.3 0 100 0C66.7 0 33.3 0 16.7 0L0 0Z" fill="#15deb7"></path><path d="M0 45L16.7 50C33.3 55 66.7 65 100 67.8C133.3 70.7 166.7 66.3 200 67.3C233.3 68.3 266.7 74.7 300 78.3C333.3 82 366.7 83 400 78.2C433.3 73.3 466.7 62.7 500 63C533.3 63.3 566.7 74.7 600 73.8C633.3 73 666.7 60 700 55C733.3 50 766.7 53 800 55.7C833.3 58.3 866.7 60.7 883.3 61.8L900 63L900 0L883.3 0C866.7 0 833.3 0 800 0C766.7 0 733.3 0 700 0C666.7 0 633.3 0 600 0C566.7 0 533.3 0 500 0C466.7 0 433.3 0 400 0C366.7 0 333.3 0 300 0C266.7 0 233.3 0 200 0C166.7 0 133.3 0 100 0C66.7 0 33.3 0 16.7 0L0 0Z" fill="#19ffd5"></path></svg>