<svg id="visual" viewBox="0 0 900 600" width="900" height="600" xmlns="http://www.w3.org/2000/svg" xmlns:xlink="http://www.w3.org/1999/xlink" version="1.1"><path d="M791 600L755 550L746 500L791 450L755 400L791 350L782 300L755 250L764 200L764 150L755 100L800 50L800 0L900 0L900 50L900 100L900 150L900 200L900 250L900 300L900 350L900 400L900 450L900 500L900 550L900 600Z" fill="#038373"></path><path d="M701 600L674 550L683 500L683 450L683 400L692 350L692 300L692 250L656 200L683 150L692 100L719 50L701 0L801 0L801 50L756 100L765 150L765 200L756 250L783 300L792 350L756 400L792 450L747 500L756 550L792 600Z" fill="#00917b"></path><path d="M611 600L602 550L602 500L620 450L575 400L620 350L602 300L566 250L593 200L602 150L602 100L620 50L584 0L702 0L720 50L693 100L684 150L657 200L693 250L693 300L693 350L684 400L684 450L684 500L675 550L702 600Z" fill="#00a081"></path><path d="M431 600L449 550L458 500L467 450L440 400L449 350L485 300L458 250L467 200L422 150L431 100L449 50L422 0L585 0L621 50L603 100L603 150L594 200L567 250L603 300L621 350L576 400L621 450L603 500L603 550L612 600Z" fill="#00ae87"></path><path d="M278 600L287 550L206 500L296 450L233 400L233 350L179 300L170 250L296 200L242 150L233 100L269 50L242 0L423 0L450 50L432 100L423 150L468 200L459 250L486 300L450 350L441 400L468 450L459 500L450 550L432 600Z" fill="#00bd8b"></path><path d="M0 600L0 550L0 500L0 450L0 400L0 350L0 300L0 250L0 200L0 150L0 100L0 50L0 0L243 0L270 50L234 100L243 150L297 200L171 250L180 300L234 350L234 400L297 450L207 500L288 550L279 600Z" fill="#00cc8e"></path></svg>